<svg width="806" height="316" viewBox="0 0 806 316" fill="none" xmlns="http://www.w3.org/2000/svg">
<path d="M275.756 297.203L177.444 309.792L78.8765 297.199L0.193726 157.603L78.8765 18.008L177.444 0.702621L275.756 18.012L354.44 157.607L275.756 297.203Z" fill="#231F20"/>
<path d="M258.007 78.94L194.711 260.357H159.844L96.8145 78.94H145.359L177.544 180.351L209.195 78.94H258.007Z" fill="#FAD00A"/>
<path d="M528.379 41.404L500.06 126.843H484.459L456.26 41.404H477.98L492.379 89.1627L506.539 41.404H528.379Z" fill="#231F20"/>
<path d="M570.02 126.843H549.02V41.404H570.02V126.843Z" fill="#231F20"/>
<path d="M661.337 99.7227C659.819 108.843 656.137 115.763 650.299 120.483C644.457 125.204 637.337 127.563 628.937 127.563C619.499 127.563 611.579 124.364 605.177 117.961C603.419 116.204 601.957 114.204 600.799 111.961C599.637 109.724 598.777 107.763 598.219 106.083C597.659 104.403 597.239 101.964 596.959 98.7627C596.677 95.5627 596.539 93.304 596.539 91.9827C596.539 90.6627 596.539 88.044 596.539 84.1214C596.539 80.204 596.539 77.5827 596.539 76.2627C596.539 74.9427 596.677 72.6827 596.959 69.4827C597.239 66.284 597.659 63.8427 598.219 62.1627C598.777 60.4827 599.637 58.5227 600.799 56.2827C601.957 54.044 603.419 52.044 605.177 50.2827C611.579 43.884 619.499 40.6827 628.937 40.6827C637.337 40.6827 644.457 43.044 650.299 47.7627C656.137 52.4827 659.819 59.404 661.337 68.5227H639.979C638.299 62.444 634.656 59.404 629.059 59.404C625.377 59.404 622.617 60.6027 620.777 63.0027C619.656 64.4427 618.837 66.5413 618.319 69.304C617.797 72.0627 617.539 77.0027 617.539 84.1214C617.539 91.2427 617.797 96.1827 618.319 98.9427C618.837 101.701 619.656 103.804 620.777 105.243C622.617 107.644 625.377 108.843 629.059 108.843C634.656 108.843 638.299 105.804 639.979 99.7227H661.337Z" fill="#231F20"/>
<path d="M489.396 186.868L475.641 224.26H470.776L457.096 186.868H463.024L473.207 216.889L483.467 186.868H489.396Z" fill="#231F20"/>
<path d="M523.215 205.565C523.215 199.839 522.227 195.989 520.252 194.012C518.428 192.188 516.148 191.276 513.412 191.276C510.725 191.276 508.471 192.188 506.648 194.012C504.621 196.04 503.608 199.892 503.608 205.565C503.608 211.239 504.621 215.09 506.648 217.116C508.471 218.94 510.725 219.852 513.412 219.852C516.148 219.852 518.428 218.94 520.252 217.116C522.227 215.141 523.215 211.289 523.215 205.565ZM528.688 205.565C528.688 212.405 527.168 217.37 524.127 220.46C521.289 223.3 517.717 224.716 513.412 224.716C509.104 224.716 505.533 223.3 502.696 220.46C499.656 217.37 498.135 212.405 498.135 205.565C498.135 198.725 499.656 193.76 502.696 190.669C505.533 187.831 509.104 186.413 513.412 186.413C517.717 186.413 521.289 187.831 524.127 190.669C527.168 193.76 528.688 198.725 528.688 205.565Z" fill="#231F20"/>
<path d="M557.492 224.26H553.539C550.396 224.26 548.029 223.348 546.433 221.524C544.837 219.7 544.039 217.294 544.039 214.305V170.149H549.512V214.077C549.512 215.952 549.891 217.333 550.652 218.217C551.412 219.107 552.703 219.548 554.528 219.548H557.492V224.26Z" fill="#231F20"/>
<path d="M599.593 224.26H594.199V220.082C591.512 223.171 587.992 224.716 583.635 224.716C579.531 224.716 576.312 223.552 573.983 221.221C571.449 218.739 570.184 215.243 570.184 210.733V186.868H575.655V209.897C575.655 213.14 576.453 215.611 578.049 217.308C579.644 219.005 581.887 219.852 584.776 219.852C587.663 219.852 589.944 218.99 591.615 217.268C593.287 215.545 594.123 213.089 594.123 209.897V186.868H599.593V224.26Z" fill="#231F20"/>
<path d="M646.487 224.26H641.013V201.233C641.013 197.991 640.203 195.52 638.583 193.823C636.961 192.125 634.707 191.276 631.819 191.276C628.929 191.276 626.663 192.14 625.016 193.86C623.369 195.583 622.547 198.04 622.547 201.233V224.26H617.075V186.868H622.547V190.973C625.18 187.932 628.676 186.413 633.035 186.413C637.088 186.413 640.28 187.579 642.612 189.909C645.196 192.443 646.487 195.913 646.487 200.321V224.26Z" fill="#231F20"/>
<path d="M677.949 224.26H674.075C670.983 224.26 668.613 223.323 666.969 221.448C665.32 219.575 664.499 217.166 664.499 214.229V191.276H659.785V187.096H664.499V175.393H669.971V187.096H677.949V191.276H669.971V214.077C669.971 217.725 671.668 219.548 675.063 219.548H677.949V224.26Z" fill="#231F20"/>
<path d="M715.189 202.905C715.037 200.271 714.659 198.192 714.051 196.673C713.34 194.951 712.199 193.583 710.631 192.569C709.059 191.556 707.285 191.048 705.311 191.048C703.335 191.048 701.56 191.556 699.991 192.569C698.419 193.583 697.28 194.951 696.571 196.673C695.963 198.192 695.583 200.271 695.429 202.905H715.189ZM720.663 207.008H695.429C695.429 211.112 696.381 214.292 698.28 216.545C700.18 218.801 702.903 219.928 706.449 219.928C708.579 219.928 710.363 219.6 711.808 218.94C713.252 218.283 714.735 217.192 716.253 215.673L719.979 218.94C717.951 220.968 715.924 222.436 713.899 223.348C711.871 224.26 709.337 224.716 706.299 224.716C701.18 224.716 697.177 223.133 694.289 219.965C691.403 216.801 689.957 211.999 689.957 205.565C689.957 199.536 691.327 194.837 694.063 191.465C696.799 188.099 700.547 186.413 705.311 186.413C710.123 186.413 713.885 188.035 716.596 191.276C719.307 194.52 720.663 198.928 720.663 204.501V207.008Z" fill="#231F20"/>
<path d="M759.269 202.905C759.117 200.271 758.739 198.192 758.131 196.673C757.42 194.951 756.28 193.583 754.711 192.569C753.139 191.556 751.365 191.048 749.391 191.048C747.415 191.048 745.641 191.556 744.071 192.569C742.499 193.583 741.36 194.951 740.651 196.673C740.043 198.192 739.663 200.271 739.509 202.905H759.269ZM764.743 207.008H739.509C739.509 211.112 740.461 214.292 742.36 216.545C744.26 218.801 746.983 219.928 750.529 219.928C752.659 219.928 754.444 219.6 755.889 218.94C757.332 218.283 758.815 217.192 760.335 215.673L764.059 218.94C762.031 220.968 760.004 222.436 757.979 223.348C755.951 224.26 753.419 224.716 750.379 224.716C745.26 224.716 741.257 223.133 738.369 219.965C735.483 216.801 734.037 211.999 734.037 205.565C734.037 199.536 735.407 194.837 738.143 191.465C740.879 188.099 744.627 186.413 749.391 186.413C754.203 186.413 757.965 188.035 760.676 191.276C763.387 194.52 764.743 198.928 764.743 204.501V207.008Z" fill="#231F20"/>
<path d="M805.097 189.909L801.071 194.012C800.057 192.999 799.08 192.289 798.144 191.884C797.205 191.48 796.028 191.276 794.609 191.276C791.924 191.276 789.757 192.228 788.112 194.125C786.465 196.027 785.643 198.421 785.643 201.309V224.26H780.169V186.868H785.643V191.428C786.655 189.859 788.112 188.629 790.012 187.743C791.912 186.856 793.951 186.413 796.131 186.413C799.777 186.413 802.768 187.579 805.097 189.909Z" fill="#231F20"/>
<path d="M516.604 298.061H511.131V275.035C511.131 271.792 510.32 269.321 508.699 267.624C507.079 265.927 504.824 265.077 501.936 265.077C499.148 265.077 496.895 265.913 495.172 267.585C493.449 269.257 492.588 271.537 492.588 274.424V298.061H487.115V275.035C487.115 271.792 486.305 269.321 484.684 267.624C483.063 265.927 480.808 265.077 477.92 265.077C475.031 265.077 472.752 265.94 471.08 267.661C469.408 269.384 468.572 271.841 468.572 275.035V298.061H463.1V260.67H468.572V264.775C471.205 261.733 474.728 260.213 479.137 260.213C484.455 260.213 488.281 262.292 490.612 266.447C493.549 262.292 497.655 260.213 502.924 260.213C506.925 260.213 510.144 261.38 512.576 263.709C515.26 266.294 516.604 269.764 516.604 274.121V298.061Z" fill="#231F20"/>
<path d="M554.908 284.837V280.809H544.42C538.845 280.809 536.059 283.012 536.059 287.421C536.059 291.676 538.921 293.805 544.647 293.805C548.499 293.805 551.285 292.969 553.008 291.297C554.273 290.082 554.908 287.928 554.908 284.837ZM560.379 298.061H554.908V294.489C553.387 296.008 551.841 297.061 550.272 297.644C548.701 298.225 546.648 298.516 544.115 298.516C539.301 298.516 535.78 297.377 533.551 295.096C531.676 293.224 530.74 290.69 530.74 287.497C530.74 284.153 531.867 281.52 534.121 279.592C536.375 277.67 539.555 276.705 543.66 276.705H554.908V273.133C554.908 270.347 554.147 268.283 552.627 266.94C551.108 265.596 548.676 264.924 545.332 264.924C542.949 264.924 541.063 265.243 539.669 265.876C538.276 266.508 537.021 267.612 535.908 269.18L532.184 265.76C533.805 263.684 535.629 262.241 537.656 261.428C539.681 260.62 542.265 260.213 545.408 260.213C555.389 260.213 560.379 264.368 560.379 272.676V298.061Z" fill="#231F20"/>
<path d="M606.891 298.061H601.419V275.035C601.419 271.792 600.608 269.321 598.987 267.624C597.365 265.927 595.112 265.077 592.223 265.077C589.335 265.077 587.067 265.94 585.42 267.661C583.773 269.384 582.951 271.841 582.951 275.035V298.061H577.479V260.67H582.951V264.775C585.584 261.733 589.08 260.213 593.44 260.213C597.492 260.213 600.684 261.38 603.016 263.709C605.6 266.243 606.891 269.713 606.891 274.121V298.061Z" fill="#231F20"/>
<path d="M645.196 284.837V280.809H634.707C629.133 280.809 626.345 283.012 626.345 287.421C626.345 291.676 629.209 293.805 634.933 293.805C638.785 293.805 641.572 292.969 643.295 291.297C644.56 290.082 645.196 287.928 645.196 284.837ZM650.667 298.061H645.196V294.489C643.673 296.008 642.129 297.061 640.559 297.644C638.988 298.225 636.936 298.516 634.403 298.516C629.588 298.516 626.067 297.377 623.837 295.096C621.963 293.224 621.028 290.69 621.028 287.497C621.028 284.153 622.155 281.52 624.408 279.592C626.663 277.67 629.841 276.705 633.947 276.705H645.196V273.133C645.196 270.347 644.433 268.283 642.915 266.94C641.395 265.596 638.963 264.924 635.619 264.924C633.236 264.924 631.349 265.243 629.957 265.876C628.563 266.508 627.308 267.612 626.196 269.18L622.471 265.76C624.092 263.684 625.916 262.241 627.944 261.428C629.969 260.62 632.553 260.213 635.696 260.213C645.676 260.213 650.667 264.368 650.667 272.676V298.061Z" fill="#231F20"/>
<path d="M689.539 284.229C689.768 282.76 689.881 281.037 689.881 279.061C689.881 277.085 689.768 275.364 689.539 273.894C689.312 272.424 688.895 270.968 688.285 269.524C687.677 268.078 686.728 266.977 685.436 266.217C684.144 265.457 682.535 265.077 680.609 265.077C678.684 265.077 677.063 265.457 675.747 266.217C674.428 266.977 673.465 268.078 672.857 269.524C672.251 270.968 671.832 272.424 671.604 273.894C671.375 275.364 671.261 277.085 671.261 279.061C671.261 281.037 671.375 282.76 671.604 284.229C671.832 285.7 672.251 287.155 672.857 288.599C673.465 290.044 674.428 291.145 675.747 291.905C677.063 292.665 678.684 293.045 680.609 293.045C682.535 293.045 684.144 292.665 685.436 291.905C686.728 291.145 687.677 290.044 688.285 288.599C688.895 287.155 689.312 285.7 689.539 284.229ZM695.353 299.203C695.353 303.913 693.959 307.763 691.173 310.753C688.387 313.743 684.585 315.237 679.773 315.237C677.037 315.237 674.744 314.859 672.896 314.096C671.045 313.337 669.108 312.045 667.083 310.221L670.655 306.725C672.173 308.092 673.541 309.056 674.757 309.615C675.975 310.171 677.593 310.451 679.621 310.451C683.067 310.451 685.637 309.385 687.336 307.257C689.033 305.129 689.881 302.368 689.881 298.973V293.121C687.348 296.364 683.852 297.985 679.395 297.985C675.593 297.985 672.579 296.872 670.349 294.641C667.311 291.6 665.789 286.409 665.789 279.061C665.789 271.716 667.311 266.523 670.349 263.482C672.528 261.304 675.568 260.213 679.471 260.213C683.979 260.213 687.475 261.835 689.957 265.077V260.67H695.353V299.203Z" fill="#231F20"/>
<path d="M736.012 276.705C735.86 274.071 735.48 271.994 734.873 270.473C734.163 268.751 733.021 267.384 731.453 266.37C729.881 265.356 728.108 264.848 726.133 264.848C724.156 264.848 722.383 265.356 720.812 266.37C719.24 267.384 718.101 268.751 717.392 270.473C716.785 271.994 716.404 274.071 716.252 276.705H736.012ZM741.484 280.809H716.252C716.252 284.913 717.203 288.092 719.101 290.347C721.001 292.603 723.724 293.729 727.272 293.729C729.4 293.729 731.185 293.401 732.631 292.741C734.075 292.083 735.557 290.994 737.076 289.473L740.801 292.741C738.773 294.768 736.747 296.237 734.721 297.149C732.693 298.061 730.16 298.516 727.121 298.516C722.001 298.516 718 296.935 715.112 293.766C712.224 290.603 710.78 285.8 710.78 279.366C710.78 273.337 712.148 268.637 714.885 265.266C717.621 261.899 721.369 260.213 726.133 260.213C730.945 260.213 734.707 261.835 737.419 265.077C740.129 268.321 741.484 272.729 741.484 278.301V280.809Z" fill="#231F20"/>
<path d="M781.84 263.709L777.812 267.813C776.799 266.8 775.823 266.09 774.887 265.684C773.947 265.28 772.769 265.077 771.352 265.077C768.667 265.077 766.5 266.028 764.853 267.927C763.207 269.827 762.385 272.221 762.385 275.111V298.061H756.912V260.67H762.385V265.229C763.396 263.659 764.853 262.431 766.753 261.544C768.655 260.657 770.693 260.213 772.873 260.213C776.52 260.213 779.509 261.38 781.84 263.709Z" fill="#231F20"/>
</svg>
